<?xml version="1.0" standalone="no"?>
<!DOCTYPE svg PUBLIC "-//W3C//DTD SVG 20010904//EN"
 "http://www.w3.org/TR/2001/REC-SVG-20010904/DTD/svg10.dtd">
<svg version="1.0" xmlns="http://www.w3.org/2000/svg"
 width="3044.000000pt" height="1086.000000pt" viewBox="0 0 3044.000000 1086.000000"
 preserveAspectRatio="xMidYMid meet">

<g transform="translate(0.000000,1086.000000) scale(0.100000,-0.100000)"
fill="#000000" stroke="none">
<path d="M1078 9784 l-1078 -1079 0 -4353 0 -4354 1653 5 c963 3 1742 9 1867
16 1357 67 1934 181 2547 501 685 358 1281 919 1705 1606 688 1116 958 2500
787 4029 -89 798 -325 1551 -685 2192 -477 850 -1060 1457 -1789 1863 -579
324 -1381 522 -2440 605 -336 26 -570 35 -1035 41 l-455 6 -1077 -1078z m1982
-924 c1096 -46 1881 -301 2425 -789 503 -451 847 -1130 974 -1921 70 -437 80
-1037 25 -1475 -116 -910 -483 -1636 -1067 -2108 -380 -307 -822 -449 -1641
-524 -130 -12 -355 -16 -943 -20 l-773 -5 0 3426 0 3426 383 0 c210 0 488 -5
617 -10z"/>
<path d="M14380 10600 c-733 -40 -1424 -220 -2070 -541 -397 -198 -717 -406
-1070 -699 -159 -131 -505 -478 -640 -640 -689 -828 -1098 -1787 -1216 -2850
-21 -194 -30 -719 -15 -920 51 -685 222 -1330 510 -1926 259 -534 575 -982
991 -1408 264 -270 536 -496 840 -701 1196 -803 2676 -1080 4087 -765 636 142
1282 424 1877 818 761 504 1506 1240 2120 2095 54 75 101 137 105 137 3 0 17
-17 31 -37 58 -85 301 -407 398 -528 642 -792 1325 -1398 2074 -1843 1127
-669 2370 -905 3643 -692 720 121 1429 405 2049 822 787 529 1413 1252 1824
2108 472 980 627 2081 446 3165 -215 1293 -920 2473 -1966 3292 -1394 1091
-3256 1409 -4941 842 -1176 -396 -2286 -1239 -3233 -2454 -456 -586 -910
-1318 -1203 -1941 -39 -84 -121 -270 -181 -415 -117 -280 -199 -434 -402 -759
-603 -964 -1341 -1733 -2086 -2173 -923 -547 -1933 -642 -2877 -270 -743 293
-1358 857 -1709 1568 -161 325 -251 613 -306 980 -27 181 -37 527 -21 715 57
645 296 1243 697 1745 118 147 382 409 524 519 489 379 1034 603 1633 671 221
25 605 20 775 -11 l32 -6 -2 1043 -3 1044 -70 6 c-134 12 -491 17 -645 9z
m11225 -2098 c754 -118 1387 -452 1902 -1004 379 -406 656 -929 779 -1472 153
-672 85 -1373 -192 -2004 -351 -797 -1024 -1430 -1839 -1730 -720 -264 -1497
-262 -2209 5 -549 206 -1041 534 -1545 1028 -391 384 -689 747 -1020 1245
-188 283 -441 711 -441 746 0 36 250 457 451 759 324 487 615 842 1005 1225
400 392 763 660 1180 868 326 163 604 258 929 317 216 39 289 44 590 40 220
-2 308 -7 410 -23z"/>
</g>
</svg>
